<?xml version="1.0" standalone="no"?><!DOCTYPE svg PUBLIC "-//W3C//DTD SVG 1.1//EN" "http://www.w3.org/Graphics/SVG/1.1/DTD/svg11.dtd"><svg class="icon" width="128px" height="128.00px" viewBox="0 0 1024 1024" version="1.1" xmlns="http://www.w3.org/2000/svg"><path d="M789.333333 490.666667c-12.8 0-21.333333 8.533333-21.333333 21.333333v279.466667c0 10.666667-8.533333 19.2-19.2 19.2H253.866667c-10.666667 0-19.2-8.533333-19.2-19.2V275.2c0-10.666667 8.533333-19.2 19.2-19.2H512c12.8 0 21.333333-8.533333 21.333333-21.333333s-8.533333-21.333333-21.333333-21.333334H253.866667C219.733333 213.333333 192 241.066667 192 275.2V789.333333c0 34.133333 27.733333 61.866667 61.866667 61.866667H746.666667c34.133333 0 61.866667-27.733333 61.866666-61.866667V512c2.133333-12.8-6.4-21.333333-19.2-21.333333z"  /><path d="M853.333333 192c0-2.133333 0-4.266667-2.133333-8.533333 0-2.133333-2.133333-2.133333-2.133333-2.133334-2.133333-4.266667-6.4-6.4-8.533334-8.533333-2.133333-2.133333-6.4-2.133333-8.533333-2.133333h-170.666667c-12.8 0-21.333333 8.533333-21.333333 21.333333s8.533333 21.333333 21.333333 21.333333h119.466667L394.666667 599.466667c-8.533333 8.533333-8.533333 21.333333 0 29.866666 8.533333 8.533333 21.333333 8.533333 29.866666 0L810.666667 243.2V362.666667c0 12.8 8.533333 21.333333 21.333333 21.333333s21.333333-8.533333 21.333333-21.333333V192z"  /></svg>