<?xml version="1.0" standalone="no"?><!DOCTYPE svg PUBLIC "-//W3C//DTD SVG 1.1//EN" "http://www.w3.org/Graphics/SVG/1.1/DTD/svg11.dtd"><svg class="icon" width="128px" height="128.00px" viewBox="0 0 1024 1024" version="1.1" xmlns="http://www.w3.org/2000/svg"><path d="M261.631254 862.823134c-41.09086 0-66.735937-27.307949-66.735937-66.735937L194.895317 328.938708c0-41.839921 25.580608-66.734914 66.735937-66.734914l66.734914 0 0 33.366945-66.734914 0c-15.934924 0-33.367969 13.94664-33.367969 33.367969l0 467.148489c0 19.747763 13.815657 33.367969 33.367969 33.367969l500.516458 0c12.902868 0 33.366945-6.321986 33.366945-33.367969L795.514657 328.938708c0-19.421328-17.433044-33.367969-33.366945-33.367969L695.411775 295.570739l0-33.366945 66.735937 0c43.339064 0 66.735937 28.805046 66.735937 66.734914l0 467.148489c0 41.514509-26.753317 66.735937-66.735937 66.735937L261.631254 862.823134z"  /><path d="M628.675838 495.777527c-10.232039-9.384741-29.294187-5.8001-33.366945 0l-66.735937 66.734914L528.572956 162.099888c0-40.340777-33.367969-40.340777-33.367969 0l0 400.412552-66.734914-66.734914c-9.80839-9.384741-24.081465-9.841136-33.367969 0-9.286504 9.906627-9.80839 24.047696 0 33.367969l100.102882 100.102882c11.828396 8.407484 24.047696 10.166547 33.399691 0l100.07116-100.102882C648.228149 511.027859 628.675838 495.777527 628.675838 495.777527z"  /></svg>